# xmcd CD database file
#
# Track frame offsets:
#	150
#	15208
#	33860
#	57187
#	70523
#	90358
#	113512
#	128552
#	139351
#	152523
#	164167
#	177398
#	212072
#	229948
#
# Disc length: 3202 seconds
#
# Revision: 0
# Processed by: cddbd v1.5.2PL0 Copyright (c) Steve Scherf et al.
# Submitted via: CDex 1.51
#
DISCID=ac0c800e
DTITLE=Zo'loka? Trío - Yo Nunca Te Ví
DYEAR=2006
DGENRE=Jazz
TTITLE0=Todo De Mí - All Of Me (Simons/Marks)
TTITLE1=Negro Y Triste - Black And Blue (Waller/Brooks/Razaf)
TTITLE2=Tiernamente - Tenderly (Lawrence/Gross)
TTITLE3=Amáme O Dejáme - Love Me Or Leave Me (Kahn/Donaldson)
TTITLE4=Lleváme Volando A La Luna - Fly Me To The Moon (Howard)
TTITLE5=No Me Culpes - Don't Blame Me (Fields/McHugh)
TTITLE6=Resortes (Kats)
TTITLE7=Aguas De Marzo - Águas De Março (Jobim)
TTITLE8=Punto Fijo Móvil (Zotalis)
TTITLE9=Dulce Georgia Brown - Sweet Georgia Brown (Bernie/Casey/Pinkard)
TTITLE10=Vos Me Hacés Algo - You Do Something To Me (Porter)
TTITLE11=Me Enamoro Muy Fácilmente - I Fall In Love Too Easily (Cahn/Styne)
TTITLE12=Rosamadreselva (Yo Nunca Te Vi) - Honeysuckle Rose (Razaf/Waller)
TTITLE13=Noche Y Día - Night And Day (Porter) (Bonus Track)
EXTD=YEAR: 2006
EXTT0=
EXTT1=
EXTT2=
EXTT3=
EXTT4=
EXTT5=
EXTT6=
EXTT7=
EXTT8=
EXTT9=
EXTT10=
EXTT11=
EXTT12=
EXTT13=
PLAYORDER=
